<mxfile host="app.diagrams.net" modified="2023-11-07T01:03:59.888Z" agent="Mozilla/5.0 (Windows NT 10.0; Win64; x64; rv:109.0) Gecko/20100101 Firefox/116.0" etag="yxl0H5OSczekFbGfsQCS" version="22.0.8" type="github">
  <diagram id="C5RBs43oDa-KdzZeNtuy" name="Page-1">
    <mxGraphModel dx="880" dy="508" grid="1" gridSize="10" guides="1" tooltips="1" connect="1" arrows="1" fold="1" page="1" pageScale="1" pageWidth="827" pageHeight="1169" math="0" shadow="0">
      <root>
        <mxCell id="WIyWlLk6GJQsqaUBKTNV-0" />
        <mxCell id="WIyWlLk6GJQsqaUBKTNV-1" parent="WIyWlLk6GJQsqaUBKTNV-0" />
        <mxCell id="v03_VTRnTj1OcTh2gmZ_-2" style="edgeStyle=orthogonalEdgeStyle;rounded=0;orthogonalLoop=1;jettySize=auto;html=1;entryX=0.5;entryY=0;entryDx=0;entryDy=0;" parent="WIyWlLk6GJQsqaUBKTNV-1" source="v03_VTRnTj1OcTh2gmZ_-0" target="v03_VTRnTj1OcTh2gmZ_-1" edge="1">
          <mxGeometry relative="1" as="geometry" />
        </mxCell>
        <mxCell id="v03_VTRnTj1OcTh2gmZ_-0" value="start" style="ellipse;whiteSpace=wrap;html=1;" parent="WIyWlLk6GJQsqaUBKTNV-1" vertex="1">
          <mxGeometry x="310" y="10" width="120" height="80" as="geometry" />
        </mxCell>
        <mxCell id="v03_VTRnTj1OcTh2gmZ_-4" style="edgeStyle=orthogonalEdgeStyle;rounded=0;orthogonalLoop=1;jettySize=auto;html=1;entryX=0.5;entryY=0;entryDx=0;entryDy=0;" parent="WIyWlLk6GJQsqaUBKTNV-1" source="v03_VTRnTj1OcTh2gmZ_-1" target="v03_VTRnTj1OcTh2gmZ_-3" edge="1">
          <mxGeometry relative="1" as="geometry" />
        </mxCell>
        <mxCell id="v03_VTRnTj1OcTh2gmZ_-1" value="number, reverseNumber" style="shape=parallelogram;perimeter=parallelogramPerimeter;whiteSpace=wrap;html=1;fixedSize=1;" parent="WIyWlLk6GJQsqaUBKTNV-1" vertex="1">
          <mxGeometry x="290" y="170" width="160" height="80" as="geometry" />
        </mxCell>
        <mxCell id="v03_VTRnTj1OcTh2gmZ_-6" style="edgeStyle=orthogonalEdgeStyle;rounded=0;orthogonalLoop=1;jettySize=auto;html=1;entryX=0.5;entryY=0;entryDx=0;entryDy=0;" parent="WIyWlLk6GJQsqaUBKTNV-1" source="v03_VTRnTj1OcTh2gmZ_-3" target="v03_VTRnTj1OcTh2gmZ_-5" edge="1">
          <mxGeometry relative="1" as="geometry" />
        </mxCell>
        <mxCell id="v03_VTRnTj1OcTh2gmZ_-3" value="i=0,tăng i" style="rounded=1;whiteSpace=wrap;html=1;" parent="WIyWlLk6GJQsqaUBKTNV-1" vertex="1">
          <mxGeometry x="220" y="320" width="300" height="100" as="geometry" />
        </mxCell>
        <mxCell id="uABLrijcPlJvnHjL69U7-3" style="edgeStyle=orthogonalEdgeStyle;rounded=0;orthogonalLoop=1;jettySize=auto;html=1;entryX=0;entryY=0.5;entryDx=0;entryDy=0;" edge="1" parent="WIyWlLk6GJQsqaUBKTNV-1" source="v03_VTRnTj1OcTh2gmZ_-5" target="uABLrijcPlJvnHjL69U7-2">
          <mxGeometry relative="1" as="geometry" />
        </mxCell>
        <mxCell id="v03_VTRnTj1OcTh2gmZ_-5" value="&lt;div&gt;reverseNumber=reversenumber*10+number%10&lt;/div&gt;&lt;div&gt;number=number/10&lt;br&gt;&lt;/div&gt;" style="rounded=0;whiteSpace=wrap;html=1;" parent="WIyWlLk6GJQsqaUBKTNV-1" vertex="1">
          <mxGeometry x="195" y="517" width="350" height="135" as="geometry" />
        </mxCell>
        <mxCell id="v03_VTRnTj1OcTh2gmZ_-7" value="in ra số cần tìm là &#39;reverseNumber&#39; và kết thúc chương trình" style="ellipse;whiteSpace=wrap;html=1;" parent="WIyWlLk6GJQsqaUBKTNV-1" vertex="1">
          <mxGeometry x="650" y="730" width="230" height="140" as="geometry" />
        </mxCell>
        <mxCell id="uABLrijcPlJvnHjL69U7-6" value="sai" style="edgeStyle=orthogonalEdgeStyle;rounded=0;orthogonalLoop=1;jettySize=auto;html=1;entryX=1;entryY=0.5;entryDx=0;entryDy=0;" edge="1" parent="WIyWlLk6GJQsqaUBKTNV-1" source="uABLrijcPlJvnHjL69U7-2" target="v03_VTRnTj1OcTh2gmZ_-3">
          <mxGeometry relative="1" as="geometry">
            <Array as="points">
              <mxPoint x="790" y="370" />
            </Array>
          </mxGeometry>
        </mxCell>
        <mxCell id="uABLrijcPlJvnHjL69U7-2" value="i&amp;gt;length(number)" style="rhombus;whiteSpace=wrap;html=1;" vertex="1" parent="WIyWlLk6GJQsqaUBKTNV-1">
          <mxGeometry x="700" y="510" width="180" height="140" as="geometry" />
        </mxCell>
        <mxCell id="uABLrijcPlJvnHjL69U7-5" value="đúng" style="edgeStyle=orthogonalEdgeStyle;rounded=0;orthogonalLoop=1;jettySize=auto;html=1;entryX=0.57;entryY=0.007;entryDx=0;entryDy=0;entryPerimeter=0;" edge="1" parent="WIyWlLk6GJQsqaUBKTNV-1" source="uABLrijcPlJvnHjL69U7-2" target="v03_VTRnTj1OcTh2gmZ_-7">
          <mxGeometry relative="1" as="geometry" />
        </mxCell>
      </root>
    </mxGraphModel>
  </diagram>
</mxfile>
